<?xml version="1.0" encoding="UTF-8" standalone="no"?><!DOCTYPE svg PUBLIC "-//W3C//DTD SVG 1.1//EN" "http://www.w3.org/Graphics/SVG/1.1/DTD/svg11.dtd"><svg width="100%" height="100%" viewBox="0 0 880 880" version="1.1" xmlns="http://www.w3.org/2000/svg" xmlns:xlink="http://www.w3.org/1999/xlink" xml:space="preserve" xmlns:serif="http://www.serif.com/" style="fill-rule:evenodd;clip-rule:evenodd;stroke-linecap:square;stroke-linejoin:round;stroke-miterlimit:2;"><rect id="logo-white" x="1.213" y="1.434" width="875" height="875" style="fill:#fff;fill-opacity:0;"/><g id="logo-white1" serif:id="logo-white"><g><path d="M149.511,167.589l647.279,0l-0,67.97l-192.469,0c-43.143,-8.455 -84.523,-6.996 -126.551,-28.013c-39.533,20.715 -83.254,20.297 -126.171,28.013l-202.661,0l0.573,-67.97Z" style="fill:#4b97e3;stroke:#4b97e3;stroke-width:8.33px;"/><path d="M376.022,249.929c-10.101,73.826 -23.618,136.915 -41.724,178.734c-15.82,36.538 -17.736,37.173 -48.568,80.298c-33.691,47.126 -58.267,75.236 -86.33,103.405c-41.805,41.962 -68.322,67.572 -118.764,103.141l91.667,0c68.498,-63.059 121.036,-116.322 175.41,-205.28c16.27,-26.619 30.996,-55.607 48.069,-110.627c15.817,-50.971 23.503,-124.556 26.073,-149.671l-45.833,-0Z" style="fill:#4b97e3;stroke:#4b97e3;stroke-width:8.33px;stroke-linecap:round;stroke-linejoin:miter;stroke-miterlimit:6;"/><path d="M450.736,249.929c-6.147,61.436 -17.088,118.714 -25.342,154.574c-8.079,35.098 -17.45,62.587 -39.527,105.699c-41.132,77.798 -79.511,124.113 -163.726,205.305l87.5,0c37.738,-34.931 71.025,-77.203 101.435,-132.633c11.96,-21.8 22.453,-44.472 33.546,-70.552c18.631,-43.804 33.087,-88.871 41.794,-142.368c5.838,-35.868 8.1,-78.886 10.154,-120.025l-45.834,-0Z" style="fill:#4b97e3;stroke:#4b97e3;stroke-width:8.33px;stroke-linecap:round;stroke-linejoin:miter;stroke-miterlimit:6;"/><path d="M525.623,249.929c0.484,57.878 -5.921,113.709 -21.502,172.898c-8.716,33.109 -15.151,56.521 -26.125,87.541c-2.967,8.389 -12.601,40.438 -33.335,80.977c-10.977,21.461 -26.078,44.581 -43.935,68.55c-13.833,18.569 -15.774,20.881 -47.579,55.612l89.541,0c51.406,-61.061 80.763,-140.594 98.296,-206.126c10.484,-39.186 14.401,-53.095 18.974,-85.293c7.353,-51.76 11.806,-114.677 11.498,-174.159l-45.833,-0Z" style="fill:#4b97e3;stroke:#4b97e3;stroke-width:8.33px;stroke-linecap:round;stroke-linejoin:miter;stroke-miterlimit:6;"/></g></g></svg>