<?xml version="1.0" encoding="UTF-8" standalone="no"?><!DOCTYPE svg PUBLIC "-//W3C//DTD SVG 1.1//EN" "http://www.w3.org/Graphics/SVG/1.1/DTD/svg11.dtd"><svg width="100%" height="100%" viewBox="0 0 913 671" version="1.1" xmlns="http://www.w3.org/2000/svg" xmlns:xlink="http://www.w3.org/1999/xlink" xml:space="preserve" xmlns:serif="http://www.serif.com/" style="fill-rule:evenodd;clip-rule:evenodd;stroke-linecap:square;stroke-linejoin:round;stroke-miterlimit:2;"><rect id="logo" x="0.222" y="3.144" width="910.975" height="666.155" style="fill:none;"/><g id="logo1" serif:id="logo"><g><path d="M166.508,62.263l647.279,-0l-0,67.97l-192.469,-0c-43.143,-8.455 -84.523,-6.996 -126.551,-28.013c-39.533,20.714 -83.254,20.296 -126.171,28.013l-202.661,-0l0.573,-67.97Z" style="fill:#4b97e3;stroke:#4b97e3;stroke-width:8.33px;"/><path d="M393.019,144.602c-10.101,73.826 -23.618,136.915 -41.724,178.735c-15.82,36.538 -17.736,37.173 -48.568,80.298c-33.691,47.125 -58.267,75.236 -86.33,103.404c-41.805,41.963 -68.322,67.572 -118.764,103.142l91.667,-0c68.498,-63.059 121.036,-116.323 175.41,-205.28c16.27,-26.619 30.996,-55.607 48.069,-110.628c15.817,-50.971 23.503,-124.556 26.073,-149.671l-45.833,0Z" style="fill:#4b97e3;stroke:#4b97e3;stroke-width:8.33px;stroke-linecap:round;stroke-linejoin:miter;stroke-miterlimit:6;"/><path d="M467.733,144.602c-6.147,61.436 -17.088,118.714 -25.342,154.574c-8.079,35.098 -17.45,62.588 -39.528,105.699c-41.131,77.799 -79.51,124.114 -163.725,205.306l87.5,-0c37.738,-34.932 71.025,-77.203 101.435,-132.633c11.96,-21.801 22.453,-44.472 33.546,-70.552c18.631,-43.805 33.087,-88.871 41.794,-142.369c5.838,-35.867 8.1,-78.886 10.153,-120.025l-45.833,0Z" style="fill:#4b97e3;stroke:#4b97e3;stroke-width:8.33px;stroke-linecap:round;stroke-linejoin:miter;stroke-miterlimit:6;"/><path d="M542.62,144.602c0.484,57.878 -5.921,113.709 -21.502,172.898c-8.716,33.11 -15.151,56.522 -26.125,87.542c-2.967,8.389 -12.601,40.438 -33.335,80.977c-10.977,21.461 -26.078,44.581 -43.935,68.55c-13.833,18.568 -15.774,20.88 -47.579,55.612l89.541,-0c51.406,-61.062 80.763,-140.595 98.296,-206.127c10.484,-39.185 14.401,-53.094 18.974,-85.292c7.352,-51.761 11.806,-114.677 11.498,-174.16l-45.833,0Z" style="fill:#4b97e3;stroke:#4b97e3;stroke-width:8.33px;stroke-linecap:round;stroke-linejoin:miter;stroke-miterlimit:6;"/></g></g></svg>