<?xml version="1.0" encoding="UTF-8" standalone="no"?><!DOCTYPE svg PUBLIC "-//W3C//DTD SVG 1.1//EN" "http://www.w3.org/Graphics/SVG/1.1/DTD/svg11.dtd"><svg width="100%" height="100%" viewBox="0 0 880 880" version="1.1" xmlns="http://www.w3.org/2000/svg" xmlns:xlink="http://www.w3.org/1999/xlink" xml:space="preserve" xmlns:serif="http://www.serif.com/" style="fill-rule:evenodd;clip-rule:evenodd;stroke-linecap:square;stroke-linejoin:round;stroke-miterlimit:2;"><rect id="logo" x="0.222" y="1.434" width="875" height="875" style="fill:none;"/><g id="logo1" serif:id="logo"><g><path d="M148.52,164.975l647.279,0l0,67.97l-192.469,0c-43.142,-8.455 -84.523,-6.996 -126.55,-28.013c-39.534,20.715 -83.254,20.297 -126.172,28.013l-202.66,0l0.572,-67.97Z" style="fill:#4b97e3;stroke:#4b97e3;stroke-width:8.33px;"/><path d="M375.031,247.315c-10.101,73.826 -23.617,136.915 -41.724,178.734c-15.82,36.538 -17.735,37.173 -48.567,80.298c-33.692,47.126 -58.267,75.236 -86.33,103.405c-41.805,41.962 -68.322,67.572 -118.765,103.141l91.667,0c68.498,-63.059 121.037,-116.322 175.41,-205.28c16.27,-26.619 30.996,-55.607 48.07,-110.627c15.817,-50.971 23.503,-124.556 26.072,-149.671l-45.833,-0Z" style="fill:#4b97e3;stroke:#4b97e3;stroke-width:8.33px;stroke-linecap:round;stroke-linejoin:miter;stroke-miterlimit:6;"/><path d="M449.746,247.315c-6.148,61.436 -17.089,118.714 -25.343,154.574c-8.079,35.098 -17.449,62.587 -39.527,105.699c-41.132,77.798 -79.511,124.113 -163.726,205.305l87.5,0c37.739,-34.931 71.026,-77.203 101.435,-132.633c11.96,-21.8 22.454,-44.472 33.546,-70.552c18.632,-43.804 33.087,-88.871 41.795,-142.368c5.837,-35.868 8.1,-78.886 10.153,-120.025l-45.833,-0Z" style="fill:#4b97e3;stroke:#4b97e3;stroke-width:8.33px;stroke-linecap:round;stroke-linejoin:miter;stroke-miterlimit:6;"/><path d="M524.632,247.315c0.484,57.878 -5.921,113.709 -21.502,172.898c-8.716,33.109 -15.151,56.521 -26.124,87.541c-2.968,8.389 -12.602,40.438 -33.336,80.977c-10.977,21.461 -26.077,44.581 -43.934,68.55c-13.834,18.569 -15.774,20.881 -47.579,55.612l89.541,0c51.406,-61.061 80.762,-140.594 98.295,-206.126c10.484,-39.186 14.401,-53.095 18.975,-85.293c7.352,-51.76 11.806,-114.677 11.498,-174.159l-45.834,-0Z" style="fill:#4b97e3;stroke:#4b97e3;stroke-width:8.33px;stroke-linecap:round;stroke-linejoin:miter;stroke-miterlimit:6;"/></g></g></svg>